%TF.GenerationSoftware,KiCad,Pcbnew,10.0.4*%
%TF.CreationDate,2026-07-02T19:30:03+05:30*%
%TF.ProjectId,ac_to_dc_converter,61635f74-6f5f-4646-935f-636f6e766572,rev?*%
%TF.SameCoordinates,Original*%
%TF.FileFunction,Legend,Top*%
%TF.FilePolarity,Positive*%
%FSLAX46Y46*%
G04 Gerber Fmt 4.6, Leading zero omitted, Abs format (unit mm)*
G04 Created by KiCad (PCBNEW 10.0.4) date 2026-07-02 19:30:03*
%MOMM*%
%LPD*%
G01*
G04 APERTURE LIST*
%ADD10C,0.125000*%
%ADD11C,0.150000*%
%ADD12C,0.120000*%
G04 APERTURE END LIST*
D10*
X129272712Y-106975460D02*
X129748902Y-106975460D01*
X129177474Y-107261175D02*
X129510807Y-106261175D01*
X129510807Y-106261175D02*
X129844140Y-107261175D01*
X130748902Y-107165936D02*
X130701283Y-107213556D01*
X130701283Y-107213556D02*
X130558426Y-107261175D01*
X130558426Y-107261175D02*
X130463188Y-107261175D01*
X130463188Y-107261175D02*
X130320331Y-107213556D01*
X130320331Y-107213556D02*
X130225093Y-107118317D01*
X130225093Y-107118317D02*
X130177474Y-107023079D01*
X130177474Y-107023079D02*
X130129855Y-106832603D01*
X130129855Y-106832603D02*
X130129855Y-106689746D01*
X130129855Y-106689746D02*
X130177474Y-106499270D01*
X130177474Y-106499270D02*
X130225093Y-106404032D01*
X130225093Y-106404032D02*
X130320331Y-106308794D01*
X130320331Y-106308794D02*
X130463188Y-106261175D01*
X130463188Y-106261175D02*
X130558426Y-106261175D01*
X130558426Y-106261175D02*
X130701283Y-106308794D01*
X130701283Y-106308794D02*
X130748902Y-106356413D01*
X131796522Y-106594508D02*
X132177474Y-106594508D01*
X131939379Y-106261175D02*
X131939379Y-107118317D01*
X131939379Y-107118317D02*
X131986998Y-107213556D01*
X131986998Y-107213556D02*
X132082236Y-107261175D01*
X132082236Y-107261175D02*
X132177474Y-107261175D01*
X132653665Y-107261175D02*
X132558427Y-107213556D01*
X132558427Y-107213556D02*
X132510808Y-107165936D01*
X132510808Y-107165936D02*
X132463189Y-107070698D01*
X132463189Y-107070698D02*
X132463189Y-106784984D01*
X132463189Y-106784984D02*
X132510808Y-106689746D01*
X132510808Y-106689746D02*
X132558427Y-106642127D01*
X132558427Y-106642127D02*
X132653665Y-106594508D01*
X132653665Y-106594508D02*
X132796522Y-106594508D01*
X132796522Y-106594508D02*
X132891760Y-106642127D01*
X132891760Y-106642127D02*
X132939379Y-106689746D01*
X132939379Y-106689746D02*
X132986998Y-106784984D01*
X132986998Y-106784984D02*
X132986998Y-107070698D01*
X132986998Y-107070698D02*
X132939379Y-107165936D01*
X132939379Y-107165936D02*
X132891760Y-107213556D01*
X132891760Y-107213556D02*
X132796522Y-107261175D01*
X132796522Y-107261175D02*
X132653665Y-107261175D01*
X134177475Y-107261175D02*
X134177475Y-106261175D01*
X134177475Y-106261175D02*
X134415570Y-106261175D01*
X134415570Y-106261175D02*
X134558427Y-106308794D01*
X134558427Y-106308794D02*
X134653665Y-106404032D01*
X134653665Y-106404032D02*
X134701284Y-106499270D01*
X134701284Y-106499270D02*
X134748903Y-106689746D01*
X134748903Y-106689746D02*
X134748903Y-106832603D01*
X134748903Y-106832603D02*
X134701284Y-107023079D01*
X134701284Y-107023079D02*
X134653665Y-107118317D01*
X134653665Y-107118317D02*
X134558427Y-107213556D01*
X134558427Y-107213556D02*
X134415570Y-107261175D01*
X134415570Y-107261175D02*
X134177475Y-107261175D01*
X135748903Y-107165936D02*
X135701284Y-107213556D01*
X135701284Y-107213556D02*
X135558427Y-107261175D01*
X135558427Y-107261175D02*
X135463189Y-107261175D01*
X135463189Y-107261175D02*
X135320332Y-107213556D01*
X135320332Y-107213556D02*
X135225094Y-107118317D01*
X135225094Y-107118317D02*
X135177475Y-107023079D01*
X135177475Y-107023079D02*
X135129856Y-106832603D01*
X135129856Y-106832603D02*
X135129856Y-106689746D01*
X135129856Y-106689746D02*
X135177475Y-106499270D01*
X135177475Y-106499270D02*
X135225094Y-106404032D01*
X135225094Y-106404032D02*
X135320332Y-106308794D01*
X135320332Y-106308794D02*
X135463189Y-106261175D01*
X135463189Y-106261175D02*
X135558427Y-106261175D01*
X135558427Y-106261175D02*
X135701284Y-106308794D01*
X135701284Y-106308794D02*
X135748903Y-106356413D01*
X129748902Y-108823500D02*
X129653664Y-108871119D01*
X129653664Y-108871119D02*
X129463188Y-108871119D01*
X129463188Y-108871119D02*
X129367950Y-108823500D01*
X129367950Y-108823500D02*
X129320331Y-108775880D01*
X129320331Y-108775880D02*
X129272712Y-108680642D01*
X129272712Y-108680642D02*
X129272712Y-108394928D01*
X129272712Y-108394928D02*
X129320331Y-108299690D01*
X129320331Y-108299690D02*
X129367950Y-108252071D01*
X129367950Y-108252071D02*
X129463188Y-108204452D01*
X129463188Y-108204452D02*
X129653664Y-108204452D01*
X129653664Y-108204452D02*
X129748902Y-108252071D01*
X130320331Y-108871119D02*
X130225093Y-108823500D01*
X130225093Y-108823500D02*
X130177474Y-108775880D01*
X130177474Y-108775880D02*
X130129855Y-108680642D01*
X130129855Y-108680642D02*
X130129855Y-108394928D01*
X130129855Y-108394928D02*
X130177474Y-108299690D01*
X130177474Y-108299690D02*
X130225093Y-108252071D01*
X130225093Y-108252071D02*
X130320331Y-108204452D01*
X130320331Y-108204452D02*
X130463188Y-108204452D01*
X130463188Y-108204452D02*
X130558426Y-108252071D01*
X130558426Y-108252071D02*
X130606045Y-108299690D01*
X130606045Y-108299690D02*
X130653664Y-108394928D01*
X130653664Y-108394928D02*
X130653664Y-108680642D01*
X130653664Y-108680642D02*
X130606045Y-108775880D01*
X130606045Y-108775880D02*
X130558426Y-108823500D01*
X130558426Y-108823500D02*
X130463188Y-108871119D01*
X130463188Y-108871119D02*
X130320331Y-108871119D01*
X131082236Y-108204452D02*
X131082236Y-108871119D01*
X131082236Y-108299690D02*
X131129855Y-108252071D01*
X131129855Y-108252071D02*
X131225093Y-108204452D01*
X131225093Y-108204452D02*
X131367950Y-108204452D01*
X131367950Y-108204452D02*
X131463188Y-108252071D01*
X131463188Y-108252071D02*
X131510807Y-108347309D01*
X131510807Y-108347309D02*
X131510807Y-108871119D01*
X131891760Y-108204452D02*
X132129855Y-108871119D01*
X132129855Y-108871119D02*
X132367950Y-108204452D01*
X133129855Y-108823500D02*
X133034617Y-108871119D01*
X133034617Y-108871119D02*
X132844141Y-108871119D01*
X132844141Y-108871119D02*
X132748903Y-108823500D01*
X132748903Y-108823500D02*
X132701284Y-108728261D01*
X132701284Y-108728261D02*
X132701284Y-108347309D01*
X132701284Y-108347309D02*
X132748903Y-108252071D01*
X132748903Y-108252071D02*
X132844141Y-108204452D01*
X132844141Y-108204452D02*
X133034617Y-108204452D01*
X133034617Y-108204452D02*
X133129855Y-108252071D01*
X133129855Y-108252071D02*
X133177474Y-108347309D01*
X133177474Y-108347309D02*
X133177474Y-108442547D01*
X133177474Y-108442547D02*
X132701284Y-108537785D01*
X133606046Y-108871119D02*
X133606046Y-108204452D01*
X133606046Y-108394928D02*
X133653665Y-108299690D01*
X133653665Y-108299690D02*
X133701284Y-108252071D01*
X133701284Y-108252071D02*
X133796522Y-108204452D01*
X133796522Y-108204452D02*
X133891760Y-108204452D01*
X134082237Y-108204452D02*
X134463189Y-108204452D01*
X134225094Y-107871119D02*
X134225094Y-108728261D01*
X134225094Y-108728261D02*
X134272713Y-108823500D01*
X134272713Y-108823500D02*
X134367951Y-108871119D01*
X134367951Y-108871119D02*
X134463189Y-108871119D01*
X135177475Y-108823500D02*
X135082237Y-108871119D01*
X135082237Y-108871119D02*
X134891761Y-108871119D01*
X134891761Y-108871119D02*
X134796523Y-108823500D01*
X134796523Y-108823500D02*
X134748904Y-108728261D01*
X134748904Y-108728261D02*
X134748904Y-108347309D01*
X134748904Y-108347309D02*
X134796523Y-108252071D01*
X134796523Y-108252071D02*
X134891761Y-108204452D01*
X134891761Y-108204452D02*
X135082237Y-108204452D01*
X135082237Y-108204452D02*
X135177475Y-108252071D01*
X135177475Y-108252071D02*
X135225094Y-108347309D01*
X135225094Y-108347309D02*
X135225094Y-108442547D01*
X135225094Y-108442547D02*
X134748904Y-108537785D01*
X135653666Y-108871119D02*
X135653666Y-108204452D01*
X135653666Y-108394928D02*
X135701285Y-108299690D01*
X135701285Y-108299690D02*
X135748904Y-108252071D01*
X135748904Y-108252071D02*
X135844142Y-108204452D01*
X135844142Y-108204452D02*
X135939380Y-108204452D01*
D11*
X144424819Y-102818094D02*
X143424819Y-102818094D01*
X143424819Y-102818094D02*
X143424819Y-102579999D01*
X143424819Y-102579999D02*
X143472438Y-102437142D01*
X143472438Y-102437142D02*
X143567676Y-102341904D01*
X143567676Y-102341904D02*
X143662914Y-102294285D01*
X143662914Y-102294285D02*
X143853390Y-102246666D01*
X143853390Y-102246666D02*
X143996247Y-102246666D01*
X143996247Y-102246666D02*
X144186723Y-102294285D01*
X144186723Y-102294285D02*
X144281961Y-102341904D01*
X144281961Y-102341904D02*
X144377200Y-102437142D01*
X144377200Y-102437142D02*
X144424819Y-102579999D01*
X144424819Y-102579999D02*
X144424819Y-102818094D01*
X143520057Y-101865713D02*
X143472438Y-101818094D01*
X143472438Y-101818094D02*
X143424819Y-101722856D01*
X143424819Y-101722856D02*
X143424819Y-101484761D01*
X143424819Y-101484761D02*
X143472438Y-101389523D01*
X143472438Y-101389523D02*
X143520057Y-101341904D01*
X143520057Y-101341904D02*
X143615295Y-101294285D01*
X143615295Y-101294285D02*
X143710533Y-101294285D01*
X143710533Y-101294285D02*
X143853390Y-101341904D01*
X143853390Y-101341904D02*
X144424819Y-101913332D01*
X144424819Y-101913332D02*
X144424819Y-101294285D01*
X144054819Y-97261904D02*
X143054819Y-97261904D01*
X144054819Y-96690476D02*
X143483390Y-97119047D01*
X143054819Y-96690476D02*
X143626247Y-97261904D01*
X127802319Y-104976190D02*
X126802319Y-104976190D01*
X126802319Y-104976190D02*
X126802319Y-104738095D01*
X126802319Y-104738095D02*
X126849938Y-104595238D01*
X126849938Y-104595238D02*
X126945176Y-104500000D01*
X126945176Y-104500000D02*
X127040414Y-104452381D01*
X127040414Y-104452381D02*
X127230890Y-104404762D01*
X127230890Y-104404762D02*
X127373747Y-104404762D01*
X127373747Y-104404762D02*
X127564223Y-104452381D01*
X127564223Y-104452381D02*
X127659461Y-104500000D01*
X127659461Y-104500000D02*
X127754700Y-104595238D01*
X127754700Y-104595238D02*
X127802319Y-104738095D01*
X127802319Y-104738095D02*
X127802319Y-104976190D01*
X127707080Y-103404762D02*
X127754700Y-103452381D01*
X127754700Y-103452381D02*
X127802319Y-103595238D01*
X127802319Y-103595238D02*
X127802319Y-103690476D01*
X127802319Y-103690476D02*
X127754700Y-103833333D01*
X127754700Y-103833333D02*
X127659461Y-103928571D01*
X127659461Y-103928571D02*
X127564223Y-103976190D01*
X127564223Y-103976190D02*
X127373747Y-104023809D01*
X127373747Y-104023809D02*
X127230890Y-104023809D01*
X127230890Y-104023809D02*
X127040414Y-103976190D01*
X127040414Y-103976190D02*
X126945176Y-103928571D01*
X126945176Y-103928571D02*
X126849938Y-103833333D01*
X126849938Y-103833333D02*
X126802319Y-103690476D01*
X126802319Y-103690476D02*
X126802319Y-103595238D01*
X126802319Y-103595238D02*
X126849938Y-103452381D01*
X126849938Y-103452381D02*
X126897557Y-103404762D01*
X126802319Y-102023809D02*
X126802319Y-101833333D01*
X126802319Y-101833333D02*
X126849938Y-101738095D01*
X126849938Y-101738095D02*
X126945176Y-101642857D01*
X126945176Y-101642857D02*
X127135652Y-101595238D01*
X127135652Y-101595238D02*
X127468985Y-101595238D01*
X127468985Y-101595238D02*
X127659461Y-101642857D01*
X127659461Y-101642857D02*
X127754700Y-101738095D01*
X127754700Y-101738095D02*
X127802319Y-101833333D01*
X127802319Y-101833333D02*
X127802319Y-102023809D01*
X127802319Y-102023809D02*
X127754700Y-102119047D01*
X127754700Y-102119047D02*
X127659461Y-102214285D01*
X127659461Y-102214285D02*
X127468985Y-102261904D01*
X127468985Y-102261904D02*
X127135652Y-102261904D01*
X127135652Y-102261904D02*
X126945176Y-102214285D01*
X126945176Y-102214285D02*
X126849938Y-102119047D01*
X126849938Y-102119047D02*
X126802319Y-102023809D01*
X126802319Y-101166666D02*
X127611842Y-101166666D01*
X127611842Y-101166666D02*
X127707080Y-101119047D01*
X127707080Y-101119047D02*
X127754700Y-101071428D01*
X127754700Y-101071428D02*
X127802319Y-100976190D01*
X127802319Y-100976190D02*
X127802319Y-100785714D01*
X127802319Y-100785714D02*
X127754700Y-100690476D01*
X127754700Y-100690476D02*
X127707080Y-100642857D01*
X127707080Y-100642857D02*
X127611842Y-100595238D01*
X127611842Y-100595238D02*
X126802319Y-100595238D01*
X126802319Y-100261904D02*
X126802319Y-99690476D01*
X127802319Y-99976190D02*
X126802319Y-99976190D01*
X128183271Y-98309523D02*
X128135652Y-98357142D01*
X128135652Y-98357142D02*
X127992795Y-98452380D01*
X127992795Y-98452380D02*
X127897557Y-98499999D01*
X127897557Y-98499999D02*
X127754700Y-98547618D01*
X127754700Y-98547618D02*
X127516604Y-98595237D01*
X127516604Y-98595237D02*
X127326128Y-98595237D01*
X127326128Y-98595237D02*
X127088033Y-98547618D01*
X127088033Y-98547618D02*
X126945176Y-98499999D01*
X126945176Y-98499999D02*
X126849938Y-98452380D01*
X126849938Y-98452380D02*
X126707080Y-98357142D01*
X126707080Y-98357142D02*
X126659461Y-98309523D01*
X126802319Y-97642856D02*
X127516604Y-97642856D01*
X127516604Y-97642856D02*
X127659461Y-97690475D01*
X127659461Y-97690475D02*
X127754700Y-97785713D01*
X127754700Y-97785713D02*
X127802319Y-97928570D01*
X127802319Y-97928570D02*
X127802319Y-98023808D01*
X126897557Y-97214284D02*
X126849938Y-97166665D01*
X126849938Y-97166665D02*
X126802319Y-97071427D01*
X126802319Y-97071427D02*
X126802319Y-96833332D01*
X126802319Y-96833332D02*
X126849938Y-96738094D01*
X126849938Y-96738094D02*
X126897557Y-96690475D01*
X126897557Y-96690475D02*
X126992795Y-96642856D01*
X126992795Y-96642856D02*
X127088033Y-96642856D01*
X127088033Y-96642856D02*
X127230890Y-96690475D01*
X127230890Y-96690475D02*
X127802319Y-97261903D01*
X127802319Y-97261903D02*
X127802319Y-96642856D01*
X128183271Y-96309522D02*
X128135652Y-96261903D01*
X128135652Y-96261903D02*
X127992795Y-96166665D01*
X127992795Y-96166665D02*
X127897557Y-96119046D01*
X127897557Y-96119046D02*
X127754700Y-96071427D01*
X127754700Y-96071427D02*
X127516604Y-96023808D01*
X127516604Y-96023808D02*
X127326128Y-96023808D01*
X127326128Y-96023808D02*
X127088033Y-96071427D01*
X127088033Y-96071427D02*
X126945176Y-96119046D01*
X126945176Y-96119046D02*
X126849938Y-96166665D01*
X126849938Y-96166665D02*
X126707080Y-96261903D01*
X126707080Y-96261903D02*
X126659461Y-96309522D01*
X127669104Y-92785714D02*
X127669104Y-92309524D01*
X127954819Y-92880952D02*
X126954819Y-92547619D01*
X126954819Y-92547619D02*
X127954819Y-92214286D01*
X127859580Y-91309524D02*
X127907200Y-91357143D01*
X127907200Y-91357143D02*
X127954819Y-91500000D01*
X127954819Y-91500000D02*
X127954819Y-91595238D01*
X127954819Y-91595238D02*
X127907200Y-91738095D01*
X127907200Y-91738095D02*
X127811961Y-91833333D01*
X127811961Y-91833333D02*
X127716723Y-91880952D01*
X127716723Y-91880952D02*
X127526247Y-91928571D01*
X127526247Y-91928571D02*
X127383390Y-91928571D01*
X127383390Y-91928571D02*
X127192914Y-91880952D01*
X127192914Y-91880952D02*
X127097676Y-91833333D01*
X127097676Y-91833333D02*
X127002438Y-91738095D01*
X127002438Y-91738095D02*
X126954819Y-91595238D01*
X126954819Y-91595238D02*
X126954819Y-91500000D01*
X126954819Y-91500000D02*
X127002438Y-91357143D01*
X127002438Y-91357143D02*
X127050057Y-91309524D01*
X127954819Y-90119047D02*
X126954819Y-90119047D01*
X127954819Y-89642857D02*
X126954819Y-89642857D01*
X126954819Y-89642857D02*
X127954819Y-89071429D01*
X127954819Y-89071429D02*
X126954819Y-89071429D01*
X128335771Y-87547619D02*
X128288152Y-87595238D01*
X128288152Y-87595238D02*
X128145295Y-87690476D01*
X128145295Y-87690476D02*
X128050057Y-87738095D01*
X128050057Y-87738095D02*
X127907200Y-87785714D01*
X127907200Y-87785714D02*
X127669104Y-87833333D01*
X127669104Y-87833333D02*
X127478628Y-87833333D01*
X127478628Y-87833333D02*
X127240533Y-87785714D01*
X127240533Y-87785714D02*
X127097676Y-87738095D01*
X127097676Y-87738095D02*
X127002438Y-87690476D01*
X127002438Y-87690476D02*
X126859580Y-87595238D01*
X126859580Y-87595238D02*
X126811961Y-87547619D01*
X126954819Y-86880952D02*
X127669104Y-86880952D01*
X127669104Y-86880952D02*
X127811961Y-86928571D01*
X127811961Y-86928571D02*
X127907200Y-87023809D01*
X127907200Y-87023809D02*
X127954819Y-87166666D01*
X127954819Y-87166666D02*
X127954819Y-87261904D01*
X127954819Y-85880952D02*
X127954819Y-86452380D01*
X127954819Y-86166666D02*
X126954819Y-86166666D01*
X126954819Y-86166666D02*
X127097676Y-86261904D01*
X127097676Y-86261904D02*
X127192914Y-86357142D01*
X127192914Y-86357142D02*
X127240533Y-86452380D01*
X128335771Y-85547618D02*
X128288152Y-85499999D01*
X128288152Y-85499999D02*
X128145295Y-85404761D01*
X128145295Y-85404761D02*
X128050057Y-85357142D01*
X128050057Y-85357142D02*
X127907200Y-85309523D01*
X127907200Y-85309523D02*
X127669104Y-85261904D01*
X127669104Y-85261904D02*
X127478628Y-85261904D01*
X127478628Y-85261904D02*
X127240533Y-85309523D01*
X127240533Y-85309523D02*
X127097676Y-85357142D01*
X127097676Y-85357142D02*
X127002438Y-85404761D01*
X127002438Y-85404761D02*
X126859580Y-85499999D01*
X126859580Y-85499999D02*
X126811961Y-85547618D01*
X157491905Y-85494819D02*
X157491905Y-84494819D01*
X157491905Y-84494819D02*
X157730000Y-84494819D01*
X157730000Y-84494819D02*
X157872857Y-84542438D01*
X157872857Y-84542438D02*
X157968095Y-84637676D01*
X157968095Y-84637676D02*
X158015714Y-84732914D01*
X158015714Y-84732914D02*
X158063333Y-84923390D01*
X158063333Y-84923390D02*
X158063333Y-85066247D01*
X158063333Y-85066247D02*
X158015714Y-85256723D01*
X158015714Y-85256723D02*
X157968095Y-85351961D01*
X157968095Y-85351961D02*
X157872857Y-85447200D01*
X157872857Y-85447200D02*
X157730000Y-85494819D01*
X157730000Y-85494819D02*
X157491905Y-85494819D01*
X158968095Y-84494819D02*
X158491905Y-84494819D01*
X158491905Y-84494819D02*
X158444286Y-84971009D01*
X158444286Y-84971009D02*
X158491905Y-84923390D01*
X158491905Y-84923390D02*
X158587143Y-84875771D01*
X158587143Y-84875771D02*
X158825238Y-84875771D01*
X158825238Y-84875771D02*
X158920476Y-84923390D01*
X158920476Y-84923390D02*
X158968095Y-84971009D01*
X158968095Y-84971009D02*
X159015714Y-85066247D01*
X159015714Y-85066247D02*
X159015714Y-85304342D01*
X159015714Y-85304342D02*
X158968095Y-85399580D01*
X158968095Y-85399580D02*
X158920476Y-85447200D01*
X158920476Y-85447200D02*
X158825238Y-85494819D01*
X158825238Y-85494819D02*
X158587143Y-85494819D01*
X158587143Y-85494819D02*
X158491905Y-85447200D01*
X158491905Y-85447200D02*
X158444286Y-85399580D01*
X152454819Y-97666666D02*
X151978628Y-97999999D01*
X152454819Y-98238094D02*
X151454819Y-98238094D01*
X151454819Y-98238094D02*
X151454819Y-97857142D01*
X151454819Y-97857142D02*
X151502438Y-97761904D01*
X151502438Y-97761904D02*
X151550057Y-97714285D01*
X151550057Y-97714285D02*
X151645295Y-97666666D01*
X151645295Y-97666666D02*
X151788152Y-97666666D01*
X151788152Y-97666666D02*
X151883390Y-97714285D01*
X151883390Y-97714285D02*
X151931009Y-97761904D01*
X151931009Y-97761904D02*
X151978628Y-97857142D01*
X151978628Y-97857142D02*
X151978628Y-98238094D01*
X151550057Y-97285713D02*
X151502438Y-97238094D01*
X151502438Y-97238094D02*
X151454819Y-97142856D01*
X151454819Y-97142856D02*
X151454819Y-96904761D01*
X151454819Y-96904761D02*
X151502438Y-96809523D01*
X151502438Y-96809523D02*
X151550057Y-96761904D01*
X151550057Y-96761904D02*
X151645295Y-96714285D01*
X151645295Y-96714285D02*
X151740533Y-96714285D01*
X151740533Y-96714285D02*
X151883390Y-96761904D01*
X151883390Y-96761904D02*
X152454819Y-97333332D01*
X152454819Y-97333332D02*
X152454819Y-96714285D01*
X150924819Y-89818094D02*
X149924819Y-89818094D01*
X149924819Y-89818094D02*
X149924819Y-89579999D01*
X149924819Y-89579999D02*
X149972438Y-89437142D01*
X149972438Y-89437142D02*
X150067676Y-89341904D01*
X150067676Y-89341904D02*
X150162914Y-89294285D01*
X150162914Y-89294285D02*
X150353390Y-89246666D01*
X150353390Y-89246666D02*
X150496247Y-89246666D01*
X150496247Y-89246666D02*
X150686723Y-89294285D01*
X150686723Y-89294285D02*
X150781961Y-89341904D01*
X150781961Y-89341904D02*
X150877200Y-89437142D01*
X150877200Y-89437142D02*
X150924819Y-89579999D01*
X150924819Y-89579999D02*
X150924819Y-89818094D01*
X149924819Y-88913332D02*
X149924819Y-88294285D01*
X149924819Y-88294285D02*
X150305771Y-88627618D01*
X150305771Y-88627618D02*
X150305771Y-88484761D01*
X150305771Y-88484761D02*
X150353390Y-88389523D01*
X150353390Y-88389523D02*
X150401009Y-88341904D01*
X150401009Y-88341904D02*
X150496247Y-88294285D01*
X150496247Y-88294285D02*
X150734342Y-88294285D01*
X150734342Y-88294285D02*
X150829580Y-88341904D01*
X150829580Y-88341904D02*
X150877200Y-88389523D01*
X150877200Y-88389523D02*
X150924819Y-88484761D01*
X150924819Y-88484761D02*
X150924819Y-88770475D01*
X150924819Y-88770475D02*
X150877200Y-88865713D01*
X150877200Y-88865713D02*
X150829580Y-88913332D01*
X150554819Y-84261904D02*
X149554819Y-84261904D01*
X150554819Y-83690476D02*
X149983390Y-84119047D01*
X149554819Y-83690476D02*
X150126247Y-84261904D01*
X150924819Y-102818094D02*
X149924819Y-102818094D01*
X149924819Y-102818094D02*
X149924819Y-102579999D01*
X149924819Y-102579999D02*
X149972438Y-102437142D01*
X149972438Y-102437142D02*
X150067676Y-102341904D01*
X150067676Y-102341904D02*
X150162914Y-102294285D01*
X150162914Y-102294285D02*
X150353390Y-102246666D01*
X150353390Y-102246666D02*
X150496247Y-102246666D01*
X150496247Y-102246666D02*
X150686723Y-102294285D01*
X150686723Y-102294285D02*
X150781961Y-102341904D01*
X150781961Y-102341904D02*
X150877200Y-102437142D01*
X150877200Y-102437142D02*
X150924819Y-102579999D01*
X150924819Y-102579999D02*
X150924819Y-102818094D01*
X150258152Y-101389523D02*
X150924819Y-101389523D01*
X149877200Y-101627618D02*
X150591485Y-101865713D01*
X150591485Y-101865713D02*
X150591485Y-101246666D01*
X150554819Y-97261904D02*
X149554819Y-97261904D01*
X150554819Y-96690476D02*
X149983390Y-97119047D01*
X149554819Y-96690476D02*
X150126247Y-97261904D01*
X144424819Y-89738094D02*
X143424819Y-89738094D01*
X143424819Y-89738094D02*
X143424819Y-89499999D01*
X143424819Y-89499999D02*
X143472438Y-89357142D01*
X143472438Y-89357142D02*
X143567676Y-89261904D01*
X143567676Y-89261904D02*
X143662914Y-89214285D01*
X143662914Y-89214285D02*
X143853390Y-89166666D01*
X143853390Y-89166666D02*
X143996247Y-89166666D01*
X143996247Y-89166666D02*
X144186723Y-89214285D01*
X144186723Y-89214285D02*
X144281961Y-89261904D01*
X144281961Y-89261904D02*
X144377200Y-89357142D01*
X144377200Y-89357142D02*
X144424819Y-89499999D01*
X144424819Y-89499999D02*
X144424819Y-89738094D01*
X144424819Y-88214285D02*
X144424819Y-88785713D01*
X144424819Y-88499999D02*
X143424819Y-88499999D01*
X143424819Y-88499999D02*
X143567676Y-88595237D01*
X143567676Y-88595237D02*
X143662914Y-88690475D01*
X143662914Y-88690475D02*
X143710533Y-88785713D01*
X144054819Y-84181904D02*
X143054819Y-84181904D01*
X144054819Y-83610476D02*
X143483390Y-84039047D01*
X143054819Y-83610476D02*
X143626247Y-84181904D01*
X152034819Y-86666666D02*
X151558628Y-86999999D01*
X152034819Y-87238094D02*
X151034819Y-87238094D01*
X151034819Y-87238094D02*
X151034819Y-86857142D01*
X151034819Y-86857142D02*
X151082438Y-86761904D01*
X151082438Y-86761904D02*
X151130057Y-86714285D01*
X151130057Y-86714285D02*
X151225295Y-86666666D01*
X151225295Y-86666666D02*
X151368152Y-86666666D01*
X151368152Y-86666666D02*
X151463390Y-86714285D01*
X151463390Y-86714285D02*
X151511009Y-86761904D01*
X151511009Y-86761904D02*
X151558628Y-86857142D01*
X151558628Y-86857142D02*
X151558628Y-87238094D01*
X152034819Y-85714285D02*
X152034819Y-86285713D01*
X152034819Y-85999999D02*
X151034819Y-85999999D01*
X151034819Y-85999999D02*
X151177676Y-86095237D01*
X151177676Y-86095237D02*
X151272914Y-86190475D01*
X151272914Y-86190475D02*
X151320533Y-86285713D01*
X156083333Y-98109580D02*
X156035714Y-98157200D01*
X156035714Y-98157200D02*
X155892857Y-98204819D01*
X155892857Y-98204819D02*
X155797619Y-98204819D01*
X155797619Y-98204819D02*
X155654762Y-98157200D01*
X155654762Y-98157200D02*
X155559524Y-98061961D01*
X155559524Y-98061961D02*
X155511905Y-97966723D01*
X155511905Y-97966723D02*
X155464286Y-97776247D01*
X155464286Y-97776247D02*
X155464286Y-97633390D01*
X155464286Y-97633390D02*
X155511905Y-97442914D01*
X155511905Y-97442914D02*
X155559524Y-97347676D01*
X155559524Y-97347676D02*
X155654762Y-97252438D01*
X155654762Y-97252438D02*
X155797619Y-97204819D01*
X155797619Y-97204819D02*
X155892857Y-97204819D01*
X155892857Y-97204819D02*
X156035714Y-97252438D01*
X156035714Y-97252438D02*
X156083333Y-97300057D01*
X157035714Y-98204819D02*
X156464286Y-98204819D01*
X156750000Y-98204819D02*
X156750000Y-97204819D01*
X156750000Y-97204819D02*
X156654762Y-97347676D01*
X156654762Y-97347676D02*
X156559524Y-97442914D01*
X156559524Y-97442914D02*
X156464286Y-97490533D01*
%TO.C,D2*%
D12*
X141500000Y-98340000D02*
X141500000Y-99360000D01*
X141500000Y-105820000D02*
X141500000Y-104800000D01*
X142970000Y-100140000D02*
X140030000Y-100140000D01*
X142970000Y-100260000D02*
X140030000Y-100260000D01*
X142970000Y-100380000D02*
X140030000Y-100380000D01*
X140030000Y-99360000D02*
X142970000Y-99360000D01*
X142970000Y-104800000D01*
X140030000Y-104800000D01*
X140030000Y-99360000D01*
%TO.C,DC OUT (J2)*%
X128347500Y-95130000D02*
X136387500Y-95130000D01*
X128347500Y-105870000D02*
X128347500Y-95130000D01*
X131967500Y-95938000D02*
X131967500Y-95130000D01*
X131967500Y-100870000D02*
X131967500Y-99562000D01*
X131967500Y-105870000D02*
X131967500Y-104630000D01*
X132967500Y-95938000D02*
X132967500Y-95130000D01*
X132967500Y-100870000D02*
X132967500Y-99562000D01*
X132967500Y-105870000D02*
X132967500Y-104630000D01*
X134267500Y-97207000D02*
X134267500Y-95130000D01*
X134267500Y-100870000D02*
X134267500Y-98293000D01*
X134267500Y-105870000D02*
X134267500Y-104630000D01*
X136387500Y-95130000D02*
X136387500Y-102450000D01*
X136387500Y-103050000D02*
X136387500Y-105870000D01*
X136387500Y-105870000D02*
X128347500Y-105870000D01*
X136387500Y-102750000D02*
X136997500Y-102310000D01*
X136997500Y-103190000D01*
X136387500Y-102750000D01*
G36*
X136997500Y-103190000D02*
G01*
X136387500Y-102750000D01*
X136997500Y-102310000D01*
X136997500Y-103190000D01*
G37*
%TO.C,AC IN (J1)*%
X128380000Y-83380000D02*
X136420000Y-83380000D01*
X128380000Y-94120000D02*
X128380000Y-83380000D01*
X132000000Y-84188000D02*
X132000000Y-83380000D01*
X132000000Y-89120000D02*
X132000000Y-87812000D01*
X132000000Y-94120000D02*
X132000000Y-92880000D01*
X133000000Y-84188000D02*
X133000000Y-83380000D01*
X133000000Y-89120000D02*
X133000000Y-87812000D01*
X133000000Y-94120000D02*
X133000000Y-92880000D01*
X134300000Y-85457000D02*
X134300000Y-83380000D01*
X134300000Y-89120000D02*
X134300000Y-86543000D01*
X134300000Y-94120000D02*
X134300000Y-92880000D01*
X136420000Y-83380000D02*
X136420000Y-90700000D01*
X136420000Y-91300000D02*
X136420000Y-94120000D01*
X136420000Y-94120000D02*
X128380000Y-94120000D01*
X136420000Y-91000000D02*
X137030000Y-90560000D01*
X137030000Y-91440000D01*
X136420000Y-91000000D01*
G36*
X137030000Y-91440000D02*
G01*
X136420000Y-91000000D01*
X137030000Y-90560000D01*
X137030000Y-91440000D01*
G37*
%TO.C,D5*%
X155670000Y-87455000D02*
X155670000Y-90545000D01*
X155670000Y-87455170D02*
G75*
G02*
X161220000Y-89000000I2560000J-1544830D01*
G01*
X161220000Y-89000000D02*
G75*
G02*
X155670000Y-90544830I-2990000J0D01*
G01*
X160730000Y-89000000D02*
G75*
G02*
X155730000Y-89000000I-2500000J0D01*
G01*
X155730000Y-89000000D02*
G75*
G02*
X160730000Y-89000000I2500000J0D01*
G01*
%TO.C,R2*%
X152630000Y-95500000D02*
X153580000Y-95500000D01*
X158370000Y-95500000D02*
X157420000Y-95500000D01*
X153580000Y-94580000D02*
X157420000Y-94580000D01*
X157420000Y-96420000D01*
X153580000Y-96420000D01*
X153580000Y-94580000D01*
%TO.C,D3*%
X148000000Y-85340000D02*
X148000000Y-86360000D01*
X148000000Y-92820000D02*
X148000000Y-91800000D01*
X149470000Y-87140000D02*
X146530000Y-87140000D01*
X149470000Y-87260000D02*
X146530000Y-87260000D01*
X149470000Y-87380000D02*
X146530000Y-87380000D01*
X146530000Y-86360000D02*
X149470000Y-86360000D01*
X149470000Y-91800000D01*
X146530000Y-91800000D01*
X146530000Y-86360000D01*
%TO.C,D4*%
X148000000Y-98340000D02*
X148000000Y-99360000D01*
X148000000Y-105820000D02*
X148000000Y-104800000D01*
X149470000Y-100140000D02*
X146530000Y-100140000D01*
X149470000Y-100260000D02*
X146530000Y-100260000D01*
X149470000Y-100380000D02*
X146530000Y-100380000D01*
X146530000Y-99360000D02*
X149470000Y-99360000D01*
X149470000Y-104800000D01*
X146530000Y-104800000D01*
X146530000Y-99360000D01*
%TO.C,D1*%
X141500000Y-85260000D02*
X141500000Y-86280000D01*
X141500000Y-92740000D02*
X141500000Y-91720000D01*
X142970000Y-87060000D02*
X140030000Y-87060000D01*
X142970000Y-87180000D02*
X140030000Y-87180000D01*
X142970000Y-87300000D02*
X140030000Y-87300000D01*
X140030000Y-86280000D02*
X142970000Y-86280000D01*
X142970000Y-91720000D01*
X140030000Y-91720000D01*
X140030000Y-86280000D01*
%TO.C,R1*%
X153500000Y-84630000D02*
X153500000Y-85580000D01*
X153500000Y-90370000D02*
X153500000Y-89420000D01*
X152580000Y-85580000D02*
X154420000Y-85580000D01*
X154420000Y-89420000D01*
X152580000Y-89420000D01*
X152580000Y-85580000D01*
%TO.C,C1*%
X151840302Y-100685000D02*
X152640302Y-100685000D01*
X152240302Y-100285000D02*
X152240302Y-101085000D01*
X156250000Y-98920000D02*
X156250000Y-107080000D01*
X156290000Y-98920000D02*
X156290000Y-107080000D01*
X156330000Y-98921000D02*
X156330000Y-107079000D01*
X156370000Y-98922000D02*
X156370000Y-107078000D01*
X156410000Y-98923000D02*
X156410000Y-107077000D01*
X156450000Y-98925000D02*
X156450000Y-107075000D01*
X156490000Y-98927000D02*
X156490000Y-107073000D01*
X156530000Y-98930000D02*
X156530000Y-107070000D01*
X156570000Y-98932000D02*
X156570000Y-107068000D01*
X156610000Y-98936000D02*
X156610000Y-107064000D01*
X156650000Y-98939000D02*
X156650000Y-107061000D01*
X156690000Y-98944000D02*
X156690000Y-107056000D01*
X156730000Y-98948000D02*
X156730000Y-107052000D01*
X156770000Y-98953000D02*
X156770000Y-107047000D01*
X156810000Y-98958000D02*
X156810000Y-107042000D01*
X156850000Y-98964000D02*
X156850000Y-107036000D01*
X156890000Y-98970000D02*
X156890000Y-107030000D01*
X156930000Y-98977000D02*
X156930000Y-107023000D01*
X156970000Y-98983000D02*
X156970000Y-101960000D01*
X156970000Y-104040000D02*
X156970000Y-107017000D01*
X157010000Y-98991000D02*
X157010000Y-101960000D01*
X157010000Y-104040000D02*
X157010000Y-107009000D01*
X157050000Y-98998000D02*
X157050000Y-101960000D01*
X157050000Y-104040000D02*
X157050000Y-107002000D01*
X157090000Y-99007000D02*
X157090000Y-101960000D01*
X157090000Y-104040000D02*
X157090000Y-106993000D01*
X157130000Y-99015000D02*
X157130000Y-101960000D01*
X157130000Y-104040000D02*
X157130000Y-106985000D01*
X157170000Y-99024000D02*
X157170000Y-101960000D01*
X157170000Y-104040000D02*
X157170000Y-106976000D01*
X157210000Y-99033000D02*
X157210000Y-101960000D01*
X157210000Y-104040000D02*
X157210000Y-106967000D01*
X157250000Y-99043000D02*
X157250000Y-101960000D01*
X157250000Y-104040000D02*
X157250000Y-106957000D01*
X157290000Y-99053000D02*
X157290000Y-101960000D01*
X157290000Y-104040000D02*
X157290000Y-106947000D01*
X157330000Y-99064000D02*
X157330000Y-101960000D01*
X157330000Y-104040000D02*
X157330000Y-106936000D01*
X157370000Y-99075000D02*
X157370000Y-101960000D01*
X157370000Y-104040000D02*
X157370000Y-106925000D01*
X157410000Y-99087000D02*
X157410000Y-101960000D01*
X157410000Y-104040000D02*
X157410000Y-106913000D01*
X157450000Y-99099000D02*
X157450000Y-101960000D01*
X157450000Y-104040000D02*
X157450000Y-106901000D01*
X157490000Y-99111000D02*
X157490000Y-101960000D01*
X157490000Y-104040000D02*
X157490000Y-106889000D01*
X157530000Y-99124000D02*
X157530000Y-101960000D01*
X157530000Y-104040000D02*
X157530000Y-106876000D01*
X157570000Y-99137000D02*
X157570000Y-101960000D01*
X157570000Y-104040000D02*
X157570000Y-106863000D01*
X157610000Y-99151000D02*
X157610000Y-101960000D01*
X157610000Y-104040000D02*
X157610000Y-106849000D01*
X157650000Y-99165000D02*
X157650000Y-101960000D01*
X157650000Y-104040000D02*
X157650000Y-106835000D01*
X157690000Y-99180000D02*
X157690000Y-101960000D01*
X157690000Y-104040000D02*
X157690000Y-106820000D01*
X157730000Y-99195000D02*
X157730000Y-101960000D01*
X157730000Y-104040000D02*
X157730000Y-106805000D01*
X157770000Y-99211000D02*
X157770000Y-101960000D01*
X157770000Y-104040000D02*
X157770000Y-106789000D01*
X157810000Y-99227000D02*
X157810000Y-101960000D01*
X157810000Y-104040000D02*
X157810000Y-106773000D01*
X157850000Y-99243000D02*
X157850000Y-101960000D01*
X157850000Y-104040000D02*
X157850000Y-106757000D01*
X157890000Y-99260000D02*
X157890000Y-101960000D01*
X157890000Y-104040000D02*
X157890000Y-106740000D01*
X157930000Y-99278000D02*
X157930000Y-101960000D01*
X157930000Y-104040000D02*
X157930000Y-106722000D01*
X157970000Y-99296000D02*
X157970000Y-101960000D01*
X157970000Y-104040000D02*
X157970000Y-106704000D01*
X158010000Y-99315000D02*
X158010000Y-101960000D01*
X158010000Y-104040000D02*
X158010000Y-106685000D01*
X158050000Y-99334000D02*
X158050000Y-101960000D01*
X158050000Y-104040000D02*
X158050000Y-106666000D01*
X158090000Y-99354000D02*
X158090000Y-101960000D01*
X158090000Y-104040000D02*
X158090000Y-106646000D01*
X158130000Y-99374000D02*
X158130000Y-101960000D01*
X158130000Y-104040000D02*
X158130000Y-106626000D01*
X158170000Y-99395000D02*
X158170000Y-101960000D01*
X158170000Y-104040000D02*
X158170000Y-106605000D01*
X158210000Y-99416000D02*
X158210000Y-101960000D01*
X158210000Y-104040000D02*
X158210000Y-106584000D01*
X158250000Y-99438000D02*
X158250000Y-101960000D01*
X158250000Y-104040000D02*
X158250000Y-106562000D01*
X158290000Y-99461000D02*
X158290000Y-101960000D01*
X158290000Y-104040000D02*
X158290000Y-106539000D01*
X158330000Y-99484000D02*
X158330000Y-101960000D01*
X158330000Y-104040000D02*
X158330000Y-106516000D01*
X158370000Y-99507000D02*
X158370000Y-101960000D01*
X158370000Y-104040000D02*
X158370000Y-106493000D01*
X158410000Y-99532000D02*
X158410000Y-101960000D01*
X158410000Y-104040000D02*
X158410000Y-106468000D01*
X158450000Y-99557000D02*
X158450000Y-101960000D01*
X158450000Y-104040000D02*
X158450000Y-106443000D01*
X158490000Y-99582000D02*
X158490000Y-101960000D01*
X158490000Y-104040000D02*
X158490000Y-106418000D01*
X158530000Y-99608000D02*
X158530000Y-101960000D01*
X158530000Y-104040000D02*
X158530000Y-106392000D01*
X158570000Y-99635000D02*
X158570000Y-101960000D01*
X158570000Y-104040000D02*
X158570000Y-106365000D01*
X158610000Y-99663000D02*
X158610000Y-101960000D01*
X158610000Y-104040000D02*
X158610000Y-106337000D01*
X158650000Y-99691000D02*
X158650000Y-101960000D01*
X158650000Y-104040000D02*
X158650000Y-106309000D01*
X158690000Y-99720000D02*
X158690000Y-101960000D01*
X158690000Y-104040000D02*
X158690000Y-106280000D01*
X158730000Y-99750000D02*
X158730000Y-101960000D01*
X158730000Y-104040000D02*
X158730000Y-106250000D01*
X158770000Y-99781000D02*
X158770000Y-101960000D01*
X158770000Y-104040000D02*
X158770000Y-106219000D01*
X158810000Y-99812000D02*
X158810000Y-101960000D01*
X158810000Y-104040000D02*
X158810000Y-106188000D01*
X158850000Y-99844000D02*
X158850000Y-101960000D01*
X158850000Y-104040000D02*
X158850000Y-106156000D01*
X158890000Y-99877000D02*
X158890000Y-101960000D01*
X158890000Y-104040000D02*
X158890000Y-106123000D01*
X158930000Y-99911000D02*
X158930000Y-101960000D01*
X158930000Y-104040000D02*
X158930000Y-106089000D01*
X158970000Y-99945000D02*
X158970000Y-101960000D01*
X158970000Y-104040000D02*
X158970000Y-106055000D01*
X159010000Y-99981000D02*
X159010000Y-101960000D01*
X159010000Y-104040000D02*
X159010000Y-106019000D01*
X159050000Y-100018000D02*
X159050000Y-105982000D01*
X159090000Y-100055000D02*
X159090000Y-105945000D01*
X159130000Y-100094000D02*
X159130000Y-105906000D01*
X159170000Y-100133000D02*
X159170000Y-105867000D01*
X159210000Y-100174000D02*
X159210000Y-105826000D01*
X159250000Y-100216000D02*
X159250000Y-105784000D01*
X159290000Y-100259000D02*
X159290000Y-105741000D01*
X159330000Y-100304000D02*
X159330000Y-105696000D01*
X159370000Y-100349000D02*
X159370000Y-105651000D01*
X159410000Y-100396000D02*
X159410000Y-105604000D01*
X159450000Y-100445000D02*
X159450000Y-105555000D01*
X159490000Y-100495000D02*
X159490000Y-105505000D01*
X159530000Y-100547000D02*
X159530000Y-105453000D01*
X159570000Y-100600000D02*
X159570000Y-105400000D01*
X159610000Y-100656000D02*
X159610000Y-105344000D01*
X159650000Y-100713000D02*
X159650000Y-105287000D01*
X159690000Y-100773000D02*
X159690000Y-105227000D01*
X159730000Y-100835000D02*
X159730000Y-105165000D01*
X159770000Y-100899000D02*
X159770000Y-105101000D01*
X159810000Y-100966000D02*
X159810000Y-105034000D01*
X159850000Y-101036000D02*
X159850000Y-104964000D01*
X159890000Y-101110000D02*
X159890000Y-104890000D01*
X159930000Y-101187000D02*
X159930000Y-104813000D01*
X159970000Y-101269000D02*
X159970000Y-104731000D01*
X160010000Y-101356000D02*
X160010000Y-104644000D01*
X160050000Y-101448000D02*
X160050000Y-104552000D01*
X160090000Y-101547000D02*
X160090000Y-104453000D01*
X160130000Y-101654000D02*
X160130000Y-104346000D01*
X160170000Y-101772000D02*
X160170000Y-104228000D01*
X160210000Y-101903000D02*
X160210000Y-104097000D01*
X160250000Y-102053000D02*
X160250000Y-103947000D01*
X160290000Y-102232000D02*
X160290000Y-103768000D01*
X160330000Y-102467000D02*
X160330000Y-103533000D01*
X160370000Y-103000000D02*
G75*
G02*
X152130000Y-103000000I-4120000J0D01*
G01*
X152130000Y-103000000D02*
G75*
G02*
X160370000Y-103000000I4120000J0D01*
G01*
%TD*%
M02*
