M48
; DRILL file KiCad 10.0.4 date 2026-07-02T19:34:07
; FORMAT={-:-/ absolute / metric / decimal}
; #@! TF.CreationDate,2026-07-02T19:34:07+05:30
; #@! TF.GenerationSoftware,Kicad,Pcbnew,10.0.4
; #@! TF.FileFunction,Plated,1,2,PTH
FMAT,2
METRIC
; #@! TA.AperFunction,Plated,PTH,ComponentDrill
T1C0.700
; #@! TA.AperFunction,Plated,PTH,ComponentDrill
T2C0.800
; #@! TA.AperFunction,Plated,PTH,ComponentDrill
T3C0.900
; #@! TA.AperFunction,Plated,PTH,ComponentDrill
T4C1.100
; #@! TA.AperFunction,Plated,PTH,ComponentDrill
T5C1.300
%
G90
G05
T1
X151.69Y-95.5
X153.5Y-83.69
X153.5Y-91.31
X159.31Y-95.5
T2
X154.5Y-103.0
X158.0Y-103.0
T3
X156.96Y-89.0
X159.5Y-89.0
T4
X141.5Y-83.92
X141.5Y-94.08
X141.5Y-97.0
X141.5Y-107.16
X148.0Y-84.0
X148.0Y-94.16
X148.0Y-97.0
X148.0Y-107.16
T5
X132.468Y-97.75
X132.468Y-102.75
X132.5Y-86.0
X132.5Y-91.0
M30
